<svg width="109" height="109" viewBox="0 0 109 109" fill="none" xmlns="http://www.w3.org/2000/svg">
<circle cx="54.5" cy="54.5" r="54.5" fill="#275C8D"/>
<path d="M45.096 58.464C45.096 57.44 45.16 56.3947 45.288 55.328C45.416 54.2613 45.5013 53.1733 45.544 52.064H38.76C38.248 52.064 37.8427 51.808 37.544 51.296C37.288 50.784 37.16 50.1867 37.16 49.504C37.16 48.0533 37.5227 47.0933 38.248 46.624C38.9733 46.1547 39.72 45.92 40.488 45.92L45.672 46.304C45.672 45.8347 45.6507 45.3653 45.608 44.896C45.608 44.384 45.608 43.872 45.608 43.36C45.608 42.592 45.6293 41.8453 45.672 41.12C45.7573 40.3947 45.8853 39.7547 46.056 39.2C46.2693 38.6027 46.568 38.1333 46.952 37.792C47.3787 37.4507 47.912 37.28 48.552 37.28C49.2773 37.28 49.6827 37.5147 49.768 37.984C49.896 38.4533 49.96 39.0933 49.96 39.904C49.9173 40.5013 49.8747 41.0773 49.832 41.632C49.7893 42.1013 49.7467 42.6133 49.704 43.168C49.704 43.7227 49.704 44.192 49.704 44.576C49.704 44.6187 49.704 44.8107 49.704 45.152C49.7467 45.4507 49.7893 45.728 49.832 45.984C50.8133 45.984 51.688 45.984 52.456 45.984C53.224 45.9413 53.7787 45.8347 54.12 45.664C54.3333 45.536 54.5893 45.408 54.888 45.28C55.2293 45.1093 55.5067 45.024 55.72 45.024C56.488 45.024 56.9787 45.3867 57.192 46.112C57.448 46.7947 57.576 47.456 57.576 48.096V48.608C57.576 49.3333 57.4693 49.9093 57.256 50.336C57.0853 50.7627 56.8293 51.0827 56.488 51.296C56.1893 51.5093 55.848 51.6587 55.464 51.744C55.1227 51.7867 54.76 51.808 54.376 51.808C54.12 51.808 53.7147 51.7867 53.16 51.744C52.6053 51.6587 52.0293 51.616 51.432 51.616C50.9627 51.616 50.536 51.6587 50.152 51.744C49.8107 51.8293 49.6187 52.0213 49.576 52.32L49.768 57.632C49.768 58.528 49.704 59.232 49.576 59.744C49.448 60.256 49.256 60.64 49 60.896C48.7867 61.152 48.5307 61.3013 48.232 61.344C47.9333 61.3867 47.6133 61.408 47.272 61.408C46.6747 61.408 46.1627 61.2373 45.736 60.896C45.3093 60.512 45.096 59.7013 45.096 58.464ZM42.152 71.456C41.896 71.456 41.6187 71.4347 41.32 71.392C41.064 71.3067 40.808 71.1573 40.552 70.944C40.3387 70.7307 40.168 70.432 40.04 70.048C39.912 69.664 39.848 69.1307 39.848 68.448C39.848 67.5947 40.04 66.9547 40.424 66.528C40.808 66.0587 41.2987 65.824 41.896 65.824C42.1093 65.824 42.3013 65.8667 42.472 65.952C42.6427 66.0373 42.8987 66.08 43.24 66.08C44.9467 66.08 46.6533 66.0373 48.36 65.952C50.1093 65.8667 51.88 65.824 53.672 65.824C54.2693 65.824 54.7387 66.1013 55.08 66.656C55.464 67.2107 55.656 67.9573 55.656 68.896C55.656 69.408 55.5493 69.856 55.336 70.24C55.1227 70.5813 54.8667 70.8587 54.568 71.072C54.2693 71.2427 53.9707 71.3707 53.672 71.456C53.3733 71.5413 53.1387 71.584 52.968 71.584C51.9867 71.584 51.0267 71.4987 50.088 71.328C49.1493 71.1573 48.1467 71.072 47.08 71.072C46.312 71.072 45.5227 71.136 44.712 71.264C43.944 71.392 43.0907 71.456 42.152 71.456ZM68.982 76.128C67.8727 76.128 67.1473 75.552 66.806 74.4C66.5073 73.248 66.358 71.776 66.358 69.984C66.358 68.5333 66.4007 66.8267 66.486 64.864C66.614 62.9013 66.742 60.8533 66.87 58.72C67.0407 56.5867 67.19 54.4533 67.318 52.32C67.446 50.144 67.5313 48.1387 67.574 46.304C67.3607 45.8347 67.126 45.408 66.87 45.024C66.6567 44.5973 66.55 43.9573 66.55 43.104C66.55 42.72 66.614 42.336 66.742 41.952C66.9127 41.568 67.126 41.2053 67.382 40.864C67.638 40.5227 67.894 40.2453 68.15 40.032C68.4487 39.8187 68.726 39.712 68.982 39.712C69.11 39.712 69.3233 39.776 69.622 39.904C69.9207 39.9893 70.2193 40.16 70.518 40.416C70.8167 40.672 71.0727 41.0133 71.286 41.44C71.4993 41.824 71.606 42.2933 71.606 42.848C71.5633 44.7253 71.478 46.7307 71.35 48.864C71.222 50.9547 71.094 53.152 70.966 55.456C70.838 57.7173 70.7313 60.0213 70.646 62.368C70.5607 64.7147 70.518 67.04 70.518 69.344C70.6033 69.984 70.6673 70.6667 70.71 71.392C70.7953 72.1173 70.838 72.7787 70.838 73.376C70.838 74.144 70.646 74.8053 70.262 75.36C69.878 75.872 69.4513 76.128 68.982 76.128Z" fill="white"/>
</svg>
