<svg width="109" height="109" viewBox="0 0 109 109" fill="none" xmlns="http://www.w3.org/2000/svg">
<circle cx="54.5" cy="54.5" r="52" stroke="white" stroke-width="5"/>
<path d="M35.5517 56.86C35.5517 55.1 35.6617 53.3033 35.8817 51.47C36.1017 49.6367 36.2484 47.7667 36.3217 45.86H24.6617C23.7817 45.86 23.0851 45.42 22.5717 44.54C22.1317 43.66 21.9117 42.6333 21.9117 41.46C21.9117 38.9667 22.5351 37.3167 23.7817 36.51C25.0284 35.7033 26.3117 35.3 27.6317 35.3L36.5417 35.96C36.5417 35.1533 36.5051 34.3467 36.4317 33.54C36.4317 32.66 36.4317 31.78 36.4317 30.9C36.4317 29.58 36.4684 28.2967 36.5417 27.05C36.6884 25.8033 36.9084 24.7033 37.2017 23.75C37.5684 22.7233 38.0817 21.9167 38.7417 21.33C39.4751 20.7433 40.3917 20.45 41.4917 20.45C42.7384 20.45 43.4351 20.8533 43.5817 21.66C43.8017 22.4667 43.9117 23.5667 43.9117 24.96C43.8384 25.9867 43.7651 26.9767 43.6917 27.93C43.6184 28.7367 43.5451 29.6167 43.4717 30.57C43.4717 31.5233 43.4717 32.33 43.4717 32.99C43.4717 33.0633 43.4717 33.3933 43.4717 33.98C43.5451 34.4933 43.6184 34.97 43.6917 35.41C45.3784 35.41 46.8817 35.41 48.2017 35.41C49.5217 35.3367 50.4751 35.1533 51.0617 34.86C51.4284 34.64 51.8684 34.42 52.3817 34.2C52.9684 33.9067 53.4451 33.76 53.8117 33.76C55.1317 33.76 55.9751 34.3833 56.3417 35.63C56.7817 36.8033 57.0017 37.94 57.0017 39.04V39.92C57.0017 41.1667 56.8184 42.1567 56.4517 42.89C56.1584 43.6233 55.7184 44.1733 55.1317 44.54C54.6184 44.9067 54.0317 45.1633 53.3717 45.31C52.7851 45.3833 52.1617 45.42 51.5017 45.42C51.0617 45.42 50.3651 45.3833 49.4117 45.31C48.4584 45.1633 47.4684 45.09 46.4417 45.09C45.6351 45.09 44.9017 45.1633 44.2417 45.31C43.6551 45.4567 43.3251 45.7867 43.2517 46.3L43.5817 55.43C43.5817 56.97 43.4717 58.18 43.2517 59.06C43.0317 59.94 42.7017 60.6 42.2617 61.04C41.8951 61.48 41.4551 61.7367 40.9417 61.81C40.4284 61.8833 39.8784 61.92 39.2917 61.92C38.2651 61.92 37.3851 61.6267 36.6517 61.04C35.9184 60.38 35.5517 58.9867 35.5517 56.86ZM30.4917 79.19C30.0517 79.19 29.5751 79.1533 29.0617 79.08C28.6217 78.9333 28.1817 78.6767 27.7417 78.31C27.3751 77.9433 27.0817 77.43 26.8617 76.77C26.6417 76.11 26.5317 75.1933 26.5317 74.02C26.5317 72.5533 26.8617 71.4533 27.5217 70.72C28.1817 69.9133 29.0251 69.51 30.0517 69.51C30.4184 69.51 30.7484 69.5833 31.0417 69.73C31.3351 69.8767 31.7751 69.95 32.3617 69.95C35.2951 69.95 38.2284 69.8767 41.1617 69.73C44.1684 69.5833 47.2117 69.51 50.2917 69.51C51.3184 69.51 52.1251 69.9867 52.7117 70.94C53.3717 71.8933 53.7017 73.1767 53.7017 74.79C53.7017 75.67 53.5184 76.44 53.1517 77.1C52.7851 77.6867 52.3451 78.1633 51.8317 78.53C51.3184 78.8233 50.8051 79.0433 50.2917 79.19C49.7784 79.3367 49.3751 79.41 49.0817 79.41C47.3951 79.41 45.7451 79.2633 44.1317 78.97C42.5184 78.6767 40.7951 78.53 38.9617 78.53C37.6417 78.53 36.2851 78.64 34.8917 78.86C33.5717 79.08 32.1051 79.19 30.4917 79.19ZM76.6058 87.22C74.6991 87.22 73.4524 86.23 72.8658 84.25C72.3524 82.27 72.0958 79.74 72.0958 76.66C72.0958 74.1667 72.1691 71.2333 72.3158 67.86C72.5358 64.4867 72.7558 60.9667 72.9758 57.3C73.2691 53.6333 73.5258 49.9667 73.7458 46.3C73.9658 42.56 74.1124 39.1133 74.1858 35.96C73.8191 35.1533 73.4158 34.42 72.9758 33.76C72.6091 33.0267 72.4258 31.9267 72.4258 30.46C72.4258 29.8 72.5358 29.14 72.7558 28.48C73.0491 27.82 73.4158 27.1967 73.8558 26.61C74.2958 26.0233 74.7358 25.5467 75.1758 25.18C75.6891 24.8133 76.1658 24.63 76.6058 24.63C76.8258 24.63 77.1924 24.74 77.7058 24.96C78.2191 25.1067 78.7324 25.4 79.2458 25.84C79.7591 26.28 80.1991 26.8667 80.5658 27.6C80.9324 28.26 81.1158 29.0667 81.1158 30.02C81.0424 33.2467 80.8958 36.6933 80.6758 40.36C80.4558 43.9533 80.2358 47.73 80.0158 51.69C79.7958 55.5767 79.6124 59.5367 79.4658 63.57C79.3191 67.6033 79.2458 71.6 79.2458 75.56C79.3924 76.66 79.5024 77.8333 79.5758 79.08C79.7224 80.3267 79.7958 81.4633 79.7958 82.49C79.7958 83.81 79.4658 84.9467 78.8058 85.9C78.1458 86.78 77.4124 87.22 76.6058 87.22Z" fill="white"/>
</svg>
